<?xml version="1.0" standalone="no"?>
<!DOCTYPE svg PUBLIC "-//W3C//DTD SVG 20010904//EN"
 "http://www.w3.org/TR/2001/REC-SVG-20010904/DTD/svg10.dtd">
<svg version="1.0" xmlns="http://www.w3.org/2000/svg"
 width="470.000000pt" height="470.000000pt" viewBox="0 0 470.000000 470.000000"
 preserveAspectRatio="xMidYMid meet">
<metadata>
Created by potrace 1.14, written by Peter Selinger 2001-2017
</metadata>
<g transform="translate(0.000000,470.000000) scale(0.100000,-0.100000)"
fill="#000000" stroke="none">
<path d="M3760 4679 c0 -18 4 -20 33 -13 35 8 125 6 139 -2 19 -12 -17 -34
-56 -35 -39 -1 -39 -2 13 -9 33 -5 58 -15 63 -24 10 -18 44 -22 50 -6 2 6 19
-1 38 -15 19 -14 36 -21 38 -15 7 19 22 -1 22 -28 0 -31 16 -60 26 -49 4 4 10
24 14 44 4 26 11 37 21 34 8 -2 29 -6 47 -9 18 -2 32 -10 32 -18 0 -8 5 -14
12 -14 6 0 8 -3 4 -7 -4 -5 -13 -8 -19 -8 -15 0 -29 -56 -17 -70 6 -8 27 -9
60 -5 37 5 53 3 62 -8 7 -7 22 -12 35 -9 14 3 33 -3 46 -14 19 -16 20 -18 5
-19 -20 0 -24 -15 -6 -26 6 -4 16 0 23 9 17 24 22 21 30 -13 4 -16 10 -30 15
-30 5 0 15 -3 23 -6 9 -3 16 3 20 15 8 33 27 24 27 -12 0 -18 5 -38 12 -45 9
-9 9 -18 0 -37 -11 -23 -10 -25 12 -25 13 0 44 -3 70 -6 l46 -7 0 252 0 251
-470 0 c-469 0 -470 0 -470 -21z m245 -62 c-8 -4 -23 -4 -32 2 -16 9 -15 11 7
19 28 11 49 -7 25 -21z m338 -87 c-13 -5 -23 -14 -23 -20 0 -6 -4 -8 -10 -5
-15 9 11 34 35 34 18 0 18 -1 -2 -9z m307 -239 c0 -5 3 -23 6 -40 6 -30 5 -31
-26 -31 -29 0 -32 3 -26 23 3 12 6 30 6 40 0 10 8 17 20 17 11 0 20 -4 20 -9z"/>
<path d="M4624 4279 c-3 -6 -1 -16 5 -22 8 -8 11 -5 11 11 0 24 -5 28 -16 11z"/>
<path d="M3825 4650 c3 -5 8 -10 11 -10 2 0 4 5 4 10 0 6 -5 10 -11 10 -5 0
-7 -4 -4 -10z"/>
<path d="M2425 4327 c-27 -7 -76 -26 -108 -41 -51 -25 -62 -27 -82 -16 -26 14
-33 12 -89 -28 -36 -27 -42 -28 -95 -19 -70 11 -145 -2 -300 -54 -121 -41
-140 -53 -177 -110 -13 -22 -47 -51 -81 -70 -32 -18 -69 -45 -82 -59 -32 -34
-61 -101 -71 -164 -4 -28 -17 -76 -29 -106 -12 -30 -21 -64 -21 -75 0 -11 -8
-42 -19 -70 -10 -27 -19 -76 -19 -107 -1 -32 -8 -84 -16 -115 -34 -139 -29
-253 15 -311 22 -28 43 -127 33 -150 -4 -9 -8 -20 -8 -24 -1 -3 -4 -10 -9 -14
-11 -12 -8 -29 15 -81 12 -26 22 -61 23 -78 3 -44 23 -154 30 -165 14 -22 35
-10 35 21 0 46 23 31 32 -21 4 -24 16 -53 27 -64 10 -12 22 -31 26 -43 8 -29
22 -29 30 -2 5 16 12 19 31 15 28 -7 26 -12 29 84 0 41 11 118 23 170 12 52
33 145 46 206 13 61 35 136 48 168 24 60 150 218 200 252 16 11 28 24 28 31 0
7 8 17 18 22 23 12 118 4 157 -13 17 -8 51 -17 77 -20 54 -8 184 -93 198 -130
5 -13 16 -26 24 -29 9 -4 16 -13 16 -20 0 -17 34 -49 43 -41 3 4 22 3 42 0 30
-6 39 -14 52 -44 20 -48 19 -107 -3 -139 -9 -14 -52 -62 -95 -106 l-78 -81
-25 27 c-14 15 -34 27 -44 27 -20 0 -45 -24 -55 -51 -6 -18 -26 -16 -157 16
-103 24 -222 45 -263 45 -28 0 -57 -11 -98 -36 -32 -20 -59 -41 -59 -45 0 -5
21 -10 48 -10 60 -2 104 -11 109 -24 1 -5 -10 -17 -26 -27 -38 -21 -55 -52
-37 -67 10 -8 24 -5 58 13 48 25 104 45 78 27 -33 -22 35 -90 92 -91 20 -1 19
-2 -8 -14 -70 -31 -44 -71 41 -64 63 5 114 40 94 64 -21 26 83 98 159 110 37
6 41 4 56 -24 26 -51 36 -151 31 -342 -5 -198 -1 -185 -59 -224 -18 -11 -18
-14 -4 -43 14 -27 14 -38 2 -84 -18 -69 -18 -94 2 -109 24 -21 55 17 61 74 4
28 10 45 17 43 15 -5 49 -105 42 -123 -10 -27 -64 -42 -111 -32 -33 7 -61 4
-125 -11 -46 -12 -100 -21 -121 -21 -33 0 -39 -3 -39 -21 0 -19 4 -21 38 -15
94 16 158 18 211 6 31 -6 67 -14 79 -16 l24 -5 -24 -17 c-12 -10 -48 -30 -78
-45 -30 -15 -71 -41 -90 -58 l-35 -30 25 -21 c21 -17 35 -19 85 -15 74 5 124
-12 146 -52 16 -27 16 -30 -6 -56 -15 -20 -26 -26 -36 -19 -28 17 -42 11 -101
-47 -58 -58 -61 -59 -115 -59 -39 0 -54 -4 -51 -12 8 -22 51 -36 143 -46 76
-9 93 -14 110 -34 11 -14 37 -35 58 -47 38 -23 48 -41 22 -41 -20 0 -19 -27 2
-39 14 -7 15 -12 5 -24 -16 -19 -19 -150 -4 -155 7 -2 12 -7 12 -12 0 -12 -73
-87 -97 -99 -13 -6 -30 -25 -39 -42 -10 -19 -21 -29 -30 -25 -8 3 -14 1 -14
-5 0 -12 -46 19 -71 48 -9 10 -47 50 -85 88 -115 117 -208 245 -261 361 -28
62 -30 80 -36 291 -3 102 -6 125 -22 143 -10 11 -23 20 -30 20 -6 0 -31 -35
-55 -77 -66 -117 -80 -133 -145 -162 -70 -33 -127 -87 -201 -192 -37 -53 -66
-82 -92 -94 -47 -23 -171 -106 -237 -160 -28 -23 -93 -62 -145 -89 -52 -26
-124 -66 -160 -88 -86 -55 -369 -198 -390 -198 -16 0 -194 -87 -272 -133 l-38
-22 0 -187 0 -188 1261 0 1261 0 -5 22 c-3 13 -9 50 -12 83 -7 63 -23 121 -39
143 -5 7 -11 46 -14 88 -2 41 -9 77 -13 80 -5 3 -5 13 0 22 5 9 12 38 16 65 8
49 53 123 83 134 18 7 106 66 133 89 37 32 72 -1 89 -82 7 -35 16 -54 26 -54
17 0 18 5 -6 -59 -17 -49 -18 -64 -9 -156 11 -113 8 -330 -5 -357 -8 -17 42
-18 963 -18 l971 0 0 353 0 353 -57 23 c-67 26 -190 76 -248 99 -22 9 -71 34
-109 54 -38 21 -72 38 -75 38 -3 0 -38 15 -76 34 -39 18 -81 37 -95 41 -14 4
-56 34 -95 66 -38 31 -92 69 -118 83 -26 13 -69 42 -95 64 -159 130 -261 189
-377 218 -61 14 -115 47 -115 69 0 8 -43 99 -49 105 -26 23 -49 74 -54 120 -7
62 -5 68 41 92 25 14 38 15 53 8 16 -9 21 -7 29 15 6 15 10 32 10 40 0 8 5 17
10 20 6 4 7 23 4 46 -5 32 -4 39 10 39 9 0 16 7 16 15 0 8 -6 15 -14 15 -11 0
-15 17 -18 67 -3 76 7 106 51 146 21 19 33 42 37 69 5 29 13 42 31 49 13 5 28
20 33 34 13 35 13 35 -10 35 -17 0 -19 3 -8 19 10 16 9 23 -6 40 -15 17 -16
25 -6 55 6 20 16 38 21 41 5 4 9 17 9 30 0 23 44 55 77 55 7 0 13 11 13 25 0
14 5 25 10 25 17 0 11 25 -10 38 -27 17 -25 32 5 32 23 0 29 8 26 37 -1 6 3
14 9 18 5 3 10 17 10 31 0 17 -6 24 -19 24 -10 0 -24 7 -31 15 -7 9 -21 13
-31 10 -25 -8 -24 4 4 39 16 19 22 38 19 54 l-5 25 -18 -24 -19 -24 0 37 c0
20 -4 39 -9 42 -4 3 -11 25 -15 48 -4 23 -12 48 -17 55 -8 9 -6 20 8 39 16 22
18 35 11 103 -4 42 -14 90 -22 106 -9 17 -16 47 -16 69 0 48 -23 138 -50 193
-11 23 -20 48 -20 56 0 39 -131 197 -164 197 -16 0 -146 111 -146 125 0 6 -41
55 -59 69 -7 6 -28 25 -46 41 -40 36 -59 49 -105 71 -19 9 -76 36 -126 60
-103 50 -182 62 -269 41z m-985 -1812 c0 -8 -4 -15 -10 -15 -5 0 -10 7 -10 15
0 8 5 15 10 15 6 0 10 -7 10 -15z"/>
<path d="M4401 4314 c0 -11 3 -14 6 -6 3 7 2 16 -1 19 -3 4 -6 -2 -5 -13z"/>
<path d="M4480 4209 c0 -5 5 -7 10 -4 6 3 10 8 10 11 0 2 -4 4 -10 4 -5 0 -10
-5 -10 -11z"/>
<path d="M1480 2205 c0 -36 13 -47 24 -19 5 14 -9 54 -19 54 -3 0 -5 -16 -5
-35z"/>
<path d="M1570 2016 c0 -9 5 -16 10 -16 6 0 10 4 10 9 0 6 -4 13 -10 16 -5 3
-10 -1 -10 -9z"/>
<path d="M2151 1996 c-10 -12 -7 -18 13 -31 42 -28 87 0 54 33 -16 16 -53 15
-67 -2z"/>
<path d="M1601 1944 c0 -11 3 -14 6 -6 3 7 2 16 -1 19 -3 4 -6 -2 -5 -13z"/>
</g>
</svg>
